# xmcd
#
# Track frame offsets: 
#        150
#        32953
#        53036
#        75502
#        96421
#        116003
#        149809
#        178293
#        182870
#        188840
#        216767
#        239240
#        268936
#
# Disc length: 3669 seconds
#
# Revision: 1
# Processed by: cddbd v1.5.2PL0 Copyright (c) Steve Scherf et al.
# Submitted via: ExactAudioCopy v0.99pb5
#
DISCID=d10e530d
DTITLE=Alan Parsons Project - Stereotomy [Japan SHM-CD)
DYEAR=1985
DGENRE=Rock
TTITLE0=Stereotomy
TTITLE1=Beaujolais
TTITLE2=Urbania (Instrumental)
TTITLE3=Limelight
TTITLE4=In The Real World
TTITLE5=Where's The Walrus (Instrumental)
TTITLE6=Light Of The World
TTITLE7=Chinese Whispers (Instrumental)
TTITLE8=Stereotomy Two
TTITLE9=Light Of The World (Backing Track)
TTITLE10=Rumour Goin' Round (Demo)
TTITLE11=Stereotomy (Eric Woolfson Guide Vocal)
TTITLE12=Stereotomy II (Backing Rough Mix)
EXTD=
EXTT0=
EXTT1=
EXTT2=
EXTT3=
EXTT4=
EXTT5=
EXTT6=
EXTT7=
EXTT8=
EXTT9=
EXTT10=
EXTT11=
EXTT12=
PLAYORDER=
